<?xml version="1.0" encoding="UTF-8"?>
<svg id="Layer_2" data-name="Layer 2" xmlns="http://www.w3.org/2000/svg" viewBox="0 0 91.43 91.43">
  <defs>
    <style>
      .cls-1 {
        fill: #fff;
      }

      .cls-2 {
        fill: #FF7B00;
      }
    </style>
  </defs>
  <g id="Layer_1-2" data-name="Layer 1">
    <circle class="cls-2" cx="45.71" cy="45.71" r="45.71"/>
    <g>
      <path class="cls-1" d="m66.19,38.87c0,1.16-.44,2.31-1.32,3.2l-11.79,11.79c-.15.14-.34.32-.55.55-.41.46-.88,1.11-1.24,1.95-.43,1.03-.53,1.95-.55,2.54v12.18c0,2.5-2.02,4.52-4.52,4.52-1.25,0-2.38-.51-3.2-1.32s-1.32-1.95-1.32-3.2v-29.23s.02-.41-.19-.87c-.05-.1-.16-.35-.4-.59-.11-.11-.4-.39-.85-.53-.36-.12-.65-.1-.65-.1h-14.53c-2.5,0-4.52-2.03-4.52-4.52,0-1.25.51-2.38,1.32-3.2.82-.82,1.95-1.32,3.2-1.32h18.76c.06,0,.14,0,.23,0,.18-.01.41-.05.66-.16.19-.08.35-.19.47-.29.11-.09.19-.18.24-.24l12.87-12.87c1.77-1.77,4.63-1.77,6.4,0,.88.88,1.32,2.04,1.32,3.2s-.44,2.31-1.32,3.2l-13.35,13.35c-.13.13-.51.56-.59,1.23-.03.22-.05.69.21,1.19.27.53.68.79.84.88.11.06.44.23.89.25.9.05,1.54-.54,1.68-.67l4.1-4.1c1.77-1.77,4.63-1.77,6.4,0,.88.88,1.32,2.04,1.32,3.2Z"/>
      <path class="cls-1" d="m44.07,30.71c-.1,0-.18,0-.23,0h.23Z"/>
      <path class="cls-1" d="m45.44,30.02c-.05.06-.13.15-.24.24l.24-.24Z"/>
      <path class="cls-1" d="m44.07,30.71c-.1,0-.18,0-.23,0h.23Z"/>
      <path class="cls-1" d="m53.07,53.86l-.55.55c.2-.23.39-.41.55-.55Z"/>
      <path class="cls-1" d="m64.2,58.9c0,1.25-.51,2.38-1.32,3.2-.82.82-1.95,1.32-3.2,1.32-2.5,0-4.52-2.02-4.52-4.52,0-1.25.51-2.38,1.32-3.2.82-.82,1.95-1.32,3.2-1.32s2.38.51,3.2,1.32c.82.82,1.32,1.95,1.32,3.2Z"/>
    </g>
  </g>
</svg>